<svg xmlns="http://www.w3.org/2000/svg" xmlns:xlink="http://www.w3.org/1999/xlink" width="416" zoomAndPan="magnify" viewBox="0 0 312 86.249997" height="115" preserveAspectRatio="xMidYMid meet" version="1.0"><defs><g/><clipPath id="9b1d759e1d"><path d="M 0.132812 23 L 27 23 L 27 52 L 0.132812 52 Z M 0.132812 23 " clip-rule="nonzero"/></clipPath><clipPath id="b43ef5c6de"><rect x="0" width="144" y="0" height="65"/></clipPath><clipPath id="f7317bf230"><path d="M 12 27 L 34 27 L 34 66 L 12 66 Z M 12 27 " clip-rule="nonzero"/></clipPath><clipPath id="c28b7520c0"><path d="M 1.347656 46.328125 L 19.160156 27.355469 L 45.179688 51.78125 L 27.367188 70.753906 Z M 1.347656 46.328125 " clip-rule="nonzero"/></clipPath><clipPath id="81ae883087"><path d="M 1.347656 46.328125 L 19.160156 27.355469 L 45.179688 51.78125 L 27.367188 70.753906 Z M 1.347656 46.328125 " clip-rule="nonzero"/></clipPath></defs><g transform="matrix(1, 0, 0, 1, 35, 10)"><g clip-path="url(#b43ef5c6de)"><g clip-path="url(#9b1d759e1d)"><g fill="#ffffff" fill-opacity="1"><g transform="translate(0.421689, 50.872009)"><g><path d="M 0.6875 -6.328125 C 0.4375 -7.316406 0.664062 -8.113281 1.375 -8.71875 C 2.09375 -9.320312 2.875 -9.625 3.71875 -9.625 C 4.363281 -9.625 4.929688 -9.4375 5.421875 -9.0625 C 5.921875 -8.695312 6.296875 -8.140625 6.546875 -7.390625 C 6.753906 -6.753906 7.210938 -6.234375 7.921875 -5.828125 C 8.628906 -5.421875 9.453125 -5.128906 10.390625 -4.953125 C 11.335938 -4.773438 12.289062 -4.6875 13.25 -4.6875 C 15.15625 -4.6875 16.691406 -5.03125 17.859375 -5.71875 C 19.035156 -6.40625 19.625 -7.28125 19.625 -8.34375 C 19.625 -9.09375 19.3125 -9.644531 18.6875 -10 C 18.070312 -10.351562 17.257812 -10.597656 16.25 -10.734375 C 15.238281 -10.878906 14.164062 -10.988281 13.03125 -11.0625 C 11.539062 -11.207031 10.078125 -11.382812 8.640625 -11.59375 C 7.203125 -11.800781 5.898438 -12.160156 4.734375 -12.671875 C 3.566406 -13.191406 2.625 -13.957031 1.90625 -14.96875 C 1.195312 -15.976562 0.84375 -17.351562 0.84375 -19.09375 C 0.84375 -20.789062 1.335938 -22.28125 2.328125 -23.5625 C 3.328125 -24.84375 4.726562 -25.835938 6.53125 -26.546875 C 8.34375 -27.253906 10.4375 -27.609375 12.8125 -27.609375 C 14.195312 -27.609375 15.6875 -27.472656 17.28125 -27.203125 C 18.875 -26.941406 20.351562 -26.398438 21.71875 -25.578125 C 23.09375 -24.765625 24.097656 -23.507812 24.734375 -21.8125 C 24.984375 -21.101562 24.960938 -20.472656 24.671875 -19.921875 C 24.390625 -19.367188 23.972656 -18.953125 23.421875 -18.671875 C 22.878906 -18.390625 22.320312 -18.25 21.75 -18.25 C 21.113281 -18.25 20.59375 -18.367188 20.1875 -18.609375 C 19.78125 -18.859375 19.429688 -19.285156 19.140625 -19.890625 C 18.828125 -20.640625 18.285156 -21.191406 17.515625 -21.546875 C 16.753906 -21.898438 15.941406 -22.117188 15.078125 -22.203125 C 14.210938 -22.296875 13.457031 -22.34375 12.8125 -22.34375 C 11.039062 -22.34375 9.613281 -22.039062 8.53125 -21.4375 C 7.457031 -20.832031 6.921875 -20.035156 6.921875 -19.046875 C 6.921875 -18.191406 7.203125 -17.613281 7.765625 -17.3125 C 8.328125 -17.007812 9.097656 -16.832031 10.078125 -16.78125 C 11.054688 -16.726562 12.144531 -16.628906 13.34375 -16.484375 C 14.832031 -16.304688 16.304688 -16.109375 17.765625 -15.890625 C 19.222656 -15.679688 20.550781 -15.320312 21.75 -14.8125 C 22.957031 -14.300781 23.914062 -13.539062 24.625 -12.53125 C 25.332031 -11.519531 25.6875 -10.125 25.6875 -8.34375 C 25.6875 -6.613281 25.160156 -5.070312 24.109375 -3.71875 C 23.066406 -2.375 21.613281 -1.328125 19.75 -0.578125 C 17.894531 0.160156 15.726562 0.53125 13.25 0.53125 C 12.144531 0.53125 10.945312 0.445312 9.65625 0.28125 C 8.363281 0.125 7.101562 -0.191406 5.875 -0.671875 C 4.65625 -1.148438 3.582031 -1.835938 2.65625 -2.734375 C 1.738281 -3.640625 1.082031 -4.835938 0.6875 -6.328125 Z M 0.6875 -6.328125 "/></g></g></g></g><g fill="#ffffff" fill-opacity="1"><g transform="translate(26.855828, 50.872009)"><g><path d="M 15.21875 -27.609375 C 18.050781 -27.609375 20.53125 -27.015625 22.65625 -25.828125 C 24.78125 -24.640625 26.425781 -22.976562 27.59375 -20.84375 C 28.769531 -18.71875 29.359375 -16.238281 29.359375 -13.40625 C 29.328125 -10.632812 28.71875 -8.203125 27.53125 -6.109375 C 26.34375 -4.023438 24.691406 -2.394531 22.578125 -1.21875 C 20.460938 -0.0507812 18.007812 0.53125 15.21875 0.53125 C 12.445312 0.53125 10 -0.0507812 7.875 -1.21875 C 5.75 -2.394531 4.085938 -4.023438 2.890625 -6.109375 C 1.703125 -8.203125 1.09375 -10.632812 1.0625 -13.40625 C 1.0625 -16.238281 1.65625 -18.71875 2.84375 -20.84375 C 4.03125 -22.976562 5.6875 -24.640625 7.8125 -25.828125 C 9.945312 -27.015625 12.414062 -27.609375 15.21875 -27.609375 Z M 15.21875 -4.78125 C 17.625 -4.78125 19.546875 -5.578125 20.984375 -7.171875 C 22.421875 -8.773438 23.140625 -10.851562 23.140625 -13.40625 C 23.140625 -16.03125 22.421875 -18.164062 20.984375 -19.8125 C 19.546875 -21.457031 17.625 -22.28125 15.21875 -22.28125 C 12.832031 -22.28125 10.910156 -21.457031 9.453125 -19.8125 C 8.003906 -18.164062 7.28125 -16.03125 7.28125 -13.40625 C 7.28125 -10.851562 8.003906 -8.773438 9.453125 -7.171875 C 10.910156 -5.578125 12.832031 -4.78125 15.21875 -4.78125 Z M 15.21875 -4.78125 "/></g></g></g><g fill="#ffffff" fill-opacity="1"><g transform="translate(56.374884, 50.872009)"><g><path d="M 9.203125 -5.265625 L 22.65625 -5.3125 C 23.6875 -5.3125 24.457031 -5.023438 24.96875 -4.453125 C 25.488281 -3.890625 25.75 -3.273438 25.75 -2.609375 C 25.75 -1.929688 25.488281 -1.328125 24.96875 -0.796875 C 24.457031 -0.265625 23.6875 0 22.65625 0 L 3.40625 0 C 2.375 0 1.582031 -0.265625 1.03125 -0.796875 C 0.488281 -1.328125 0.21875 -1.929688 0.21875 -2.609375 C 0.21875 -3.347656 0.550781 -4.054688 1.21875 -4.734375 L 16.375 -21.703125 L 3.984375 -21.640625 C 3.023438 -21.640625 2.289062 -21.914062 1.78125 -22.46875 C 1.269531 -23.019531 1.015625 -23.632812 1.015625 -24.3125 C 1.015625 -25.019531 1.269531 -25.65625 1.78125 -26.21875 C 2.289062 -26.789062 3.023438 -27.078125 3.984375 -27.078125 L 22.28125 -27.078125 C 23.238281 -27.078125 24.007812 -26.78125 24.59375 -26.1875 C 25.1875 -25.601562 25.484375 -24.957031 25.484375 -24.25 C 25.484375 -23.613281 25.160156 -22.941406 24.515625 -22.234375 Z M 9.203125 -5.265625 "/></g></g></g><g fill="#ffffff" fill-opacity="1"><g transform="translate(82.489888, 50.872009)"><g><path d="M 24.78125 -27.078125 C 25.707031 -27.078125 26.5 -26.675781 27.15625 -25.875 C 27.8125 -25.070312 27.941406 -24.140625 27.546875 -23.078125 L 12.015625 7.390625 C 11.660156 8.066406 11.207031 8.597656 10.65625 8.984375 C 10.113281 9.378906 9.539062 9.578125 8.9375 9.578125 C 8.332031 9.578125 7.769531 9.367188 7.25 8.953125 C 6.738281 8.546875 6.382812 8.023438 6.1875 7.390625 C 6 6.753906 6.082031 6.082031 6.4375 5.375 L 10.484375 -2.609375 L 0 -22.875 C -0.320312 -23.582031 -0.363281 -24.253906 -0.125 -24.890625 C 0.101562 -25.523438 0.484375 -26.046875 1.015625 -26.453125 C 1.546875 -26.867188 2.128906 -27.078125 2.765625 -27.078125 C 3.328125 -27.078125 3.875 -26.898438 4.40625 -26.546875 C 4.945312 -26.191406 5.335938 -25.726562 5.578125 -25.15625 L 13.78125 -9.140625 L 21.96875 -25.203125 C 22.21875 -25.773438 22.585938 -26.226562 23.078125 -26.5625 C 23.578125 -26.90625 24.144531 -27.078125 24.78125 -27.078125 Z M 24.78125 -27.078125 "/></g></g></g><g fill="#ffffff" fill-opacity="1"><g transform="translate(110.200543, 50.872009)"><g><path d="M 17.921875 -27.609375 C 20.398438 -27.609375 22.507812 -27.066406 24.25 -25.984375 C 25.988281 -24.898438 27.316406 -23.398438 28.234375 -21.484375 C 29.160156 -19.566406 29.625 -17.332031 29.625 -14.78125 L 29.625 -2.765625 C 29.625 -1.953125 29.359375 -1.285156 28.828125 -0.765625 C 28.296875 -0.253906 27.550781 0 26.59375 0 C 25.707031 0 24.976562 -0.253906 24.40625 -0.765625 C 23.84375 -1.285156 23.5625 -1.953125 23.5625 -2.765625 L 23.5625 -14.890625 C 23.5625 -17.085938 23.035156 -18.867188 21.984375 -20.234375 C 20.941406 -21.597656 19.285156 -22.28125 17.015625 -22.28125 C 16.347656 -22.28125 15.539062 -22.09375 14.59375 -21.71875 C 13.65625 -21.351562 12.734375 -20.796875 11.828125 -20.046875 C 10.929688 -19.304688 10.1875 -18.367188 9.59375 -17.234375 C 9.007812 -16.097656 8.71875 -14.75 8.71875 -13.1875 L 8.71875 -2.71875 C 8.71875 -0.90625 7.742188 0 5.796875 0 C 4.878906 0 4.125 -0.238281 3.53125 -0.71875 C 2.945312 -1.195312 2.65625 -1.863281 2.65625 -2.71875 L 2.65625 -24.359375 C 2.65625 -25.242188 2.960938 -25.914062 3.578125 -26.375 C 4.203125 -26.84375 4.90625 -27.078125 5.6875 -27.078125 C 6.4375 -27.078125 7.128906 -26.84375 7.765625 -26.375 C 8.398438 -25.914062 8.71875 -25.28125 8.71875 -24.46875 L 8.71875 -24.09375 C 10.25 -25.507812 11.828125 -26.445312 13.453125 -26.90625 C 15.085938 -27.375 16.578125 -27.609375 17.921875 -27.609375 Z M 17.921875 -27.609375 "/></g></g></g></g></g><g fill="#ffffff" fill-opacity="1"><g transform="translate(136.898602, 71.08257)"><g><path d="M 3.125 0.09375 C 2.40625 0.09375 1.816406 -0.0625 1.359375 -0.375 C 0.898438 -0.695312 0.644531 -1.148438 0.59375 -1.734375 L 1.140625 -1.734375 C 1.179688 -1.316406 1.375 -0.984375 1.71875 -0.734375 C 2.0625 -0.492188 2.53125 -0.375 3.125 -0.375 C 3.613281 -0.375 4.003906 -0.5 4.296875 -0.75 C 4.585938 -1 4.734375 -1.304688 4.734375 -1.671875 C 4.734375 -1.921875 4.65625 -2.125 4.5 -2.28125 C 4.34375 -2.445312 4.148438 -2.570312 3.921875 -2.65625 C 3.691406 -2.75 3.378906 -2.847656 2.984375 -2.953125 C 2.503906 -3.078125 2.117188 -3.195312 1.828125 -3.3125 C 1.535156 -3.4375 1.285156 -3.625 1.078125 -3.875 C 0.867188 -4.125 0.765625 -4.453125 0.765625 -4.859375 C 0.765625 -5.160156 0.851562 -5.441406 1.03125 -5.703125 C 1.21875 -5.960938 1.472656 -6.164062 1.796875 -6.3125 C 2.128906 -6.46875 2.5 -6.546875 2.90625 -6.546875 C 3.582031 -6.546875 4.128906 -6.375 4.546875 -6.03125 C 4.960938 -5.695312 5.1875 -5.234375 5.21875 -4.640625 L 4.6875 -4.640625 C 4.664062 -5.066406 4.5 -5.414062 4.1875 -5.6875 C 3.875 -5.957031 3.445312 -6.09375 2.90625 -6.09375 C 2.445312 -6.09375 2.066406 -5.972656 1.765625 -5.734375 C 1.460938 -5.492188 1.3125 -5.203125 1.3125 -4.859375 C 1.3125 -4.554688 1.394531 -4.3125 1.5625 -4.125 C 1.726562 -3.945312 1.9375 -3.804688 2.1875 -3.703125 C 2.4375 -3.609375 2.769531 -3.503906 3.1875 -3.390625 C 3.632812 -3.265625 3.992188 -3.144531 4.265625 -3.03125 C 4.546875 -2.914062 4.78125 -2.75 4.96875 -2.53125 C 5.15625 -2.320312 5.25 -2.035156 5.25 -1.671875 C 5.25 -1.335938 5.15625 -1.035156 4.96875 -0.765625 C 4.789062 -0.492188 4.539062 -0.28125 4.21875 -0.125 C 3.894531 0.0195312 3.53125 0.09375 3.125 0.09375 Z M 3.125 0.09375 "/></g></g></g><g fill="#ffffff" fill-opacity="1"><g transform="translate(142.359137, 71.08257)"><g><path d="M 1.25 -7.890625 C 1.125 -7.890625 1.015625 -7.929688 0.921875 -8.015625 C 0.835938 -8.097656 0.796875 -8.210938 0.796875 -8.359375 C 0.796875 -8.492188 0.835938 -8.601562 0.921875 -8.6875 C 1.015625 -8.78125 1.125 -8.828125 1.25 -8.828125 C 1.375 -8.828125 1.476562 -8.78125 1.5625 -8.6875 C 1.65625 -8.601562 1.703125 -8.492188 1.703125 -8.359375 C 1.703125 -8.210938 1.65625 -8.097656 1.5625 -8.015625 C 1.476562 -7.929688 1.375 -7.890625 1.25 -7.890625 Z M 1.515625 -6.453125 L 1.515625 0 L 0.96875 0 L 0.96875 -6.453125 Z M 1.515625 -6.453125 "/></g></g></g><g fill="#ffffff" fill-opacity="1"><g transform="translate(144.405355, 71.08257)"><g><path d="M 8.609375 -6.59375 C 9.347656 -6.59375 9.953125 -6.351562 10.421875 -5.875 C 10.890625 -5.40625 11.125 -4.707031 11.125 -3.78125 L 11.125 0 L 10.59375 0 L 10.59375 -3.75 C 10.59375 -4.519531 10.40625 -5.109375 10.03125 -5.515625 C 9.664062 -5.921875 9.164062 -6.125 8.53125 -6.125 C 7.863281 -6.125 7.328125 -5.894531 6.921875 -5.4375 C 6.515625 -4.976562 6.3125 -4.3125 6.3125 -3.4375 L 6.3125 0 L 5.796875 0 L 5.796875 -3.75 C 5.796875 -4.519531 5.609375 -5.109375 5.234375 -5.515625 C 4.867188 -5.921875 4.363281 -6.125 3.71875 -6.125 C 3.050781 -6.125 2.515625 -5.894531 2.109375 -5.4375 C 1.710938 -4.976562 1.515625 -4.3125 1.515625 -3.4375 L 1.515625 0 L 0.96875 0 L 0.96875 -6.453125 L 1.515625 -6.453125 L 1.515625 -5.046875 C 1.691406 -5.554688 1.984375 -5.941406 2.390625 -6.203125 C 2.804688 -6.460938 3.28125 -6.59375 3.8125 -6.59375 C 4.394531 -6.59375 4.894531 -6.4375 5.3125 -6.125 C 5.738281 -5.820312 6.03125 -5.375 6.1875 -4.78125 C 6.34375 -5.375 6.640625 -5.820312 7.078125 -6.125 C 7.515625 -6.4375 8.023438 -6.59375 8.609375 -6.59375 Z M 8.609375 -6.59375 "/></g></g></g><g fill="#ffffff" fill-opacity="1"><g transform="translate(156.00453, 71.08257)"><g><path d="M 1.515625 -4.75 C 1.691406 -5.28125 2.019531 -5.710938 2.5 -6.046875 C 2.976562 -6.378906 3.5625 -6.546875 4.25 -6.546875 C 4.851562 -6.546875 5.390625 -6.410156 5.859375 -6.140625 C 6.328125 -5.867188 6.691406 -5.484375 6.953125 -4.984375 C 7.222656 -4.484375 7.359375 -3.898438 7.359375 -3.234375 C 7.359375 -2.566406 7.222656 -1.976562 6.953125 -1.46875 C 6.691406 -0.96875 6.328125 -0.582031 5.859375 -0.3125 C 5.390625 -0.0390625 4.851562 0.09375 4.25 0.09375 C 3.570312 0.09375 2.992188 -0.0703125 2.515625 -0.40625 C 2.035156 -0.75 1.703125 -1.175781 1.515625 -1.6875 L 1.515625 3.046875 L 0.96875 3.046875 L 0.96875 -6.453125 L 1.515625 -6.453125 Z M 6.8125 -3.234375 C 6.8125 -3.816406 6.695312 -4.320312 6.46875 -4.75 C 6.25 -5.175781 5.941406 -5.503906 5.546875 -5.734375 C 5.148438 -5.960938 4.6875 -6.078125 4.15625 -6.078125 C 3.65625 -6.078125 3.203125 -5.957031 2.796875 -5.71875 C 2.398438 -5.488281 2.085938 -5.15625 1.859375 -4.71875 C 1.628906 -4.289062 1.515625 -3.796875 1.515625 -3.234375 C 1.515625 -2.660156 1.628906 -2.15625 1.859375 -1.71875 C 2.085938 -1.289062 2.398438 -0.957031 2.796875 -0.71875 C 3.203125 -0.488281 3.65625 -0.375 4.15625 -0.375 C 4.6875 -0.375 5.148438 -0.488281 5.546875 -0.71875 C 5.941406 -0.945312 6.25 -1.273438 6.46875 -1.703125 C 6.695312 -2.140625 6.8125 -2.648438 6.8125 -3.234375 Z M 6.8125 -3.234375 "/></g></g></g><g fill="#ffffff" fill-opacity="1"><g transform="translate(163.558866, 71.08257)"><g><path d="M 1.515625 -8.796875 L 1.515625 0 L 0.96875 0 L 0.96875 -8.796875 Z M 1.515625 -8.796875 "/></g></g></g><g fill="#ffffff" fill-opacity="1"><g transform="translate(165.605083, 71.08257)"><g><path d="M 1.25 -7.890625 C 1.125 -7.890625 1.015625 -7.929688 0.921875 -8.015625 C 0.835938 -8.097656 0.796875 -8.210938 0.796875 -8.359375 C 0.796875 -8.492188 0.835938 -8.601562 0.921875 -8.6875 C 1.015625 -8.78125 1.125 -8.828125 1.25 -8.828125 C 1.375 -8.828125 1.476562 -8.78125 1.5625 -8.6875 C 1.65625 -8.601562 1.703125 -8.492188 1.703125 -8.359375 C 1.703125 -8.210938 1.65625 -8.097656 1.5625 -8.015625 C 1.476562 -7.929688 1.375 -7.890625 1.25 -7.890625 Z M 1.515625 -6.453125 L 1.515625 0 L 0.96875 0 L 0.96875 -6.453125 Z M 1.515625 -6.453125 "/></g></g></g><g fill="#ffffff" fill-opacity="1"><g transform="translate(167.6513, 71.08257)"><g><path d="M 3.4375 -5.984375 L 1.765625 -5.984375 L 1.765625 0 L 1.21875 0 L 1.21875 -5.984375 L 0.25 -5.984375 L 0.25 -6.453125 L 1.21875 -6.453125 L 1.21875 -6.90625 C 1.21875 -7.582031 1.390625 -8.082031 1.734375 -8.40625 C 2.078125 -8.738281 2.632812 -8.90625 3.40625 -8.90625 L 3.40625 -8.4375 C 2.789062 -8.4375 2.363281 -8.316406 2.125 -8.078125 C 1.882812 -7.835938 1.765625 -7.445312 1.765625 -6.90625 L 1.765625 -6.453125 L 3.4375 -6.453125 Z M 3.4375 -5.984375 "/></g></g></g><g fill="#ffffff" fill-opacity="1"><g transform="translate(171.029937, 71.08257)"><g><path d="M 1.25 -7.890625 C 1.125 -7.890625 1.015625 -7.929688 0.921875 -8.015625 C 0.835938 -8.097656 0.796875 -8.210938 0.796875 -8.359375 C 0.796875 -8.492188 0.835938 -8.601562 0.921875 -8.6875 C 1.015625 -8.78125 1.125 -8.828125 1.25 -8.828125 C 1.375 -8.828125 1.476562 -8.78125 1.5625 -8.6875 C 1.65625 -8.601562 1.703125 -8.492188 1.703125 -8.359375 C 1.703125 -8.210938 1.65625 -8.097656 1.5625 -8.015625 C 1.476562 -7.929688 1.375 -7.890625 1.25 -7.890625 Z M 1.515625 -6.453125 L 1.515625 0 L 0.96875 0 L 0.96875 -6.453125 Z M 1.515625 -6.453125 "/></g></g></g><g fill="#ffffff" fill-opacity="1"><g transform="translate(173.076154, 71.08257)"><g><path d="M 6.796875 -3.65625 C 6.796875 -3.375 6.785156 -3.160156 6.765625 -3.015625 L 1.1875 -3.015625 C 1.207031 -2.441406 1.332031 -1.957031 1.5625 -1.5625 C 1.800781 -1.164062 2.113281 -0.867188 2.5 -0.671875 C 2.894531 -0.472656 3.320312 -0.375 3.78125 -0.375 C 4.414062 -0.375 4.945312 -0.53125 5.375 -0.84375 C 5.800781 -1.15625 6.070312 -1.578125 6.1875 -2.109375 L 6.734375 -2.109375 C 6.609375 -1.453125 6.285156 -0.921875 5.765625 -0.515625 C 5.242188 -0.109375 4.582031 0.09375 3.78125 0.09375 C 3.175781 0.09375 2.632812 -0.0390625 2.15625 -0.3125 C 1.6875 -0.582031 1.316406 -0.96875 1.046875 -1.46875 C 0.773438 -1.96875 0.640625 -2.554688 0.640625 -3.234375 C 0.640625 -3.910156 0.769531 -4.5 1.03125 -5 C 1.300781 -5.5 1.671875 -5.878906 2.140625 -6.140625 C 2.617188 -6.410156 3.164062 -6.546875 3.78125 -6.546875 C 4.394531 -6.546875 4.929688 -6.410156 5.390625 -6.140625 C 5.847656 -5.878906 6.195312 -5.523438 6.4375 -5.078125 C 6.675781 -4.640625 6.796875 -4.164062 6.796875 -3.65625 Z M 6.25 -3.453125 C 6.28125 -4.023438 6.179688 -4.507812 5.953125 -4.90625 C 5.722656 -5.300781 5.414062 -5.597656 5.03125 -5.796875 C 4.644531 -5.992188 4.222656 -6.09375 3.765625 -6.09375 C 3.316406 -6.09375 2.898438 -5.992188 2.515625 -5.796875 C 2.128906 -5.597656 1.816406 -5.300781 1.578125 -4.90625 C 1.335938 -4.507812 1.207031 -4.023438 1.1875 -3.453125 Z M 6.25 -3.453125 "/></g></g></g><g fill="#ffffff" fill-opacity="1"><g transform="translate(180.059451, 71.08257)"><g><path d="M 0.640625 -3.234375 C 0.640625 -3.898438 0.769531 -4.484375 1.03125 -4.984375 C 1.300781 -5.484375 1.671875 -5.867188 2.140625 -6.140625 C 2.617188 -6.410156 3.15625 -6.546875 3.75 -6.546875 C 4.414062 -6.546875 4.988281 -6.378906 5.46875 -6.046875 C 5.945312 -5.710938 6.289062 -5.285156 6.5 -4.765625 L 6.5 -8.796875 L 7.03125 -8.796875 L 7.03125 0 L 6.5 0 L 6.5 -1.71875 C 6.300781 -1.1875 5.960938 -0.75 5.484375 -0.40625 C 5.015625 -0.0703125 4.4375 0.09375 3.75 0.09375 C 3.15625 0.09375 2.617188 -0.0390625 2.140625 -0.3125 C 1.671875 -0.582031 1.300781 -0.96875 1.03125 -1.46875 C 0.769531 -1.976562 0.640625 -2.566406 0.640625 -3.234375 Z M 6.5 -3.234375 C 6.5 -3.796875 6.378906 -4.289062 6.140625 -4.71875 C 5.910156 -5.15625 5.59375 -5.488281 5.1875 -5.71875 C 4.78125 -5.957031 4.328125 -6.078125 3.828125 -6.078125 C 3.304688 -6.078125 2.847656 -5.960938 2.453125 -5.734375 C 2.054688 -5.503906 1.742188 -5.175781 1.515625 -4.75 C 1.296875 -4.320312 1.1875 -3.816406 1.1875 -3.234375 C 1.1875 -2.648438 1.296875 -2.140625 1.515625 -1.703125 C 1.742188 -1.273438 2.054688 -0.945312 2.453125 -0.71875 C 2.859375 -0.488281 3.316406 -0.375 3.828125 -0.375 C 4.328125 -0.375 4.78125 -0.488281 5.1875 -0.71875 C 5.59375 -0.957031 5.910156 -1.289062 6.140625 -1.71875 C 6.378906 -2.15625 6.5 -2.660156 6.5 -3.234375 Z M 6.5 -3.234375 "/></g></g></g><g fill="#ffffff" fill-opacity="1"><g transform="translate(187.613786, 71.08257)"><g/></g></g><g fill="#ffffff" fill-opacity="1"><g transform="translate(190.516561, 71.08257)"><g><path d="M 1.515625 -8.796875 L 1.515625 0 L 0.96875 0 L 0.96875 -8.796875 Z M 1.515625 -8.796875 "/></g></g></g><g fill="#ffffff" fill-opacity="1"><g transform="translate(192.562778, 71.08257)"><g><path d="M 1.25 -7.890625 C 1.125 -7.890625 1.015625 -7.929688 0.921875 -8.015625 C 0.835938 -8.097656 0.796875 -8.210938 0.796875 -8.359375 C 0.796875 -8.492188 0.835938 -8.601562 0.921875 -8.6875 C 1.015625 -8.78125 1.125 -8.828125 1.25 -8.828125 C 1.375 -8.828125 1.476562 -8.78125 1.5625 -8.6875 C 1.65625 -8.601562 1.703125 -8.492188 1.703125 -8.359375 C 1.703125 -8.210938 1.65625 -8.097656 1.5625 -8.015625 C 1.476562 -7.929688 1.375 -7.890625 1.25 -7.890625 Z M 1.515625 -6.453125 L 1.515625 0 L 0.96875 0 L 0.96875 -6.453125 Z M 1.515625 -6.453125 "/></g></g></g><g fill="#ffffff" fill-opacity="1"><g transform="translate(194.608996, 71.08257)"><g><path d="M 3.4375 -5.984375 L 1.765625 -5.984375 L 1.765625 0 L 1.21875 0 L 1.21875 -5.984375 L 0.25 -5.984375 L 0.25 -6.453125 L 1.21875 -6.453125 L 1.21875 -6.90625 C 1.21875 -7.582031 1.390625 -8.082031 1.734375 -8.40625 C 2.078125 -8.738281 2.632812 -8.90625 3.40625 -8.90625 L 3.40625 -8.4375 C 2.789062 -8.4375 2.363281 -8.316406 2.125 -8.078125 C 1.882812 -7.835938 1.765625 -7.445312 1.765625 -6.90625 L 1.765625 -6.453125 L 3.4375 -6.453125 Z M 3.4375 -5.984375 "/></g></g></g><g fill="#ffffff" fill-opacity="1"><g transform="translate(197.987632, 71.08257)"><g><path d="M 6.796875 -3.65625 C 6.796875 -3.375 6.785156 -3.160156 6.765625 -3.015625 L 1.1875 -3.015625 C 1.207031 -2.441406 1.332031 -1.957031 1.5625 -1.5625 C 1.800781 -1.164062 2.113281 -0.867188 2.5 -0.671875 C 2.894531 -0.472656 3.320312 -0.375 3.78125 -0.375 C 4.414062 -0.375 4.945312 -0.53125 5.375 -0.84375 C 5.800781 -1.15625 6.070312 -1.578125 6.1875 -2.109375 L 6.734375 -2.109375 C 6.609375 -1.453125 6.285156 -0.921875 5.765625 -0.515625 C 5.242188 -0.109375 4.582031 0.09375 3.78125 0.09375 C 3.175781 0.09375 2.632812 -0.0390625 2.15625 -0.3125 C 1.6875 -0.582031 1.316406 -0.96875 1.046875 -1.46875 C 0.773438 -1.96875 0.640625 -2.554688 0.640625 -3.234375 C 0.640625 -3.910156 0.769531 -4.5 1.03125 -5 C 1.300781 -5.5 1.671875 -5.878906 2.140625 -6.140625 C 2.617188 -6.410156 3.164062 -6.546875 3.78125 -6.546875 C 4.394531 -6.546875 4.929688 -6.410156 5.390625 -6.140625 C 5.847656 -5.878906 6.195312 -5.523438 6.4375 -5.078125 C 6.675781 -4.640625 6.796875 -4.164062 6.796875 -3.65625 Z M 6.25 -3.453125 C 6.28125 -4.023438 6.179688 -4.507812 5.953125 -4.90625 C 5.722656 -5.300781 5.414062 -5.597656 5.03125 -5.796875 C 4.644531 -5.992188 4.222656 -6.09375 3.765625 -6.09375 C 3.316406 -6.09375 2.898438 -5.992188 2.515625 -5.796875 C 2.128906 -5.597656 1.816406 -5.300781 1.578125 -4.90625 C 1.335938 -4.507812 1.207031 -4.023438 1.1875 -3.453125 Z M 6.25 -3.453125 "/></g></g></g><g fill="#ffffff" fill-opacity="1"><g transform="translate(204.970929, 71.08257)"><g><path d="M 0.890625 0.03125 C 0.753906 0.03125 0.640625 -0.0078125 0.546875 -0.09375 C 0.460938 -0.175781 0.421875 -0.285156 0.421875 -0.421875 C 0.421875 -0.554688 0.460938 -0.664062 0.546875 -0.75 C 0.640625 -0.84375 0.753906 -0.890625 0.890625 -0.890625 C 1.015625 -0.890625 1.117188 -0.84375 1.203125 -0.75 C 1.296875 -0.664062 1.34375 -0.554688 1.34375 -0.421875 C 1.34375 -0.285156 1.296875 -0.175781 1.203125 -0.09375 C 1.117188 -0.0078125 1.015625 0.03125 0.890625 0.03125 Z M 0.890625 0.03125 "/></g></g></g><g fill="#ffffff" fill-opacity="1"><g transform="translate(206.291458, 71.08257)"><g><path d="M 0.890625 0.03125 C 0.753906 0.03125 0.640625 -0.0078125 0.546875 -0.09375 C 0.460938 -0.175781 0.421875 -0.285156 0.421875 -0.421875 C 0.421875 -0.554688 0.460938 -0.664062 0.546875 -0.75 C 0.640625 -0.84375 0.753906 -0.890625 0.890625 -0.890625 C 1.015625 -0.890625 1.117188 -0.84375 1.203125 -0.75 C 1.296875 -0.664062 1.34375 -0.554688 1.34375 -0.421875 C 1.34375 -0.285156 1.296875 -0.175781 1.203125 -0.09375 C 1.117188 -0.0078125 1.015625 0.03125 0.890625 0.03125 Z M 0.890625 0.03125 "/></g></g></g><g fill="#ffffff" fill-opacity="1"><g transform="translate(207.611987, 71.08257)"><g><path d="M 0.890625 0.03125 C 0.753906 0.03125 0.640625 -0.0078125 0.546875 -0.09375 C 0.460938 -0.175781 0.421875 -0.285156 0.421875 -0.421875 C 0.421875 -0.554688 0.460938 -0.664062 0.546875 -0.75 C 0.640625 -0.84375 0.753906 -0.890625 0.890625 -0.890625 C 1.015625 -0.890625 1.117188 -0.84375 1.203125 -0.75 C 1.296875 -0.664062 1.34375 -0.554688 1.34375 -0.421875 C 1.34375 -0.285156 1.296875 -0.175781 1.203125 -0.09375 C 1.117188 -0.0078125 1.015625 0.03125 0.890625 0.03125 Z M 0.890625 0.03125 "/></g></g></g><g fill="#ffffff" fill-opacity="1"><g transform="translate(208.932516, 71.08257)"><g><path d="M 0.890625 0.03125 C 0.753906 0.03125 0.640625 -0.0078125 0.546875 -0.09375 C 0.460938 -0.175781 0.421875 -0.285156 0.421875 -0.421875 C 0.421875 -0.554688 0.460938 -0.664062 0.546875 -0.75 C 0.640625 -0.84375 0.753906 -0.890625 0.890625 -0.890625 C 1.015625 -0.890625 1.117188 -0.84375 1.203125 -0.75 C 1.296875 -0.664062 1.34375 -0.554688 1.34375 -0.421875 C 1.34375 -0.285156 1.296875 -0.175781 1.203125 -0.09375 C 1.117188 -0.0078125 1.015625 0.03125 0.890625 0.03125 Z M 0.890625 0.03125 "/></g></g></g><g fill="#ffffff" fill-opacity="1"><g transform="translate(210.253046, 71.08257)"><g><path d="M 0.890625 0.03125 C 0.753906 0.03125 0.640625 -0.0078125 0.546875 -0.09375 C 0.460938 -0.175781 0.421875 -0.285156 0.421875 -0.421875 C 0.421875 -0.554688 0.460938 -0.664062 0.546875 -0.75 C 0.640625 -0.84375 0.753906 -0.890625 0.890625 -0.890625 C 1.015625 -0.890625 1.117188 -0.84375 1.203125 -0.75 C 1.296875 -0.664062 1.34375 -0.554688 1.34375 -0.421875 C 1.34375 -0.285156 1.296875 -0.175781 1.203125 -0.09375 C 1.117188 -0.0078125 1.015625 0.03125 0.890625 0.03125 Z M 0.890625 0.03125 "/></g></g></g><g clip-path="url(#f7317bf230)"><g clip-path="url(#c28b7520c0)"><g clip-path="url(#81ae883087)"><path fill="#ffffff" d="M 29.136719 38.8125 L 27.867188 52.367188 C 27.863281 52.382812 27.871094 52.390625 27.871094 52.40625 L 27.050781 61.144531 C 27.007812 61.617188 27.355469 62.039062 27.828125 62.082031 C 28.105469 62.109375 28.363281 62 28.539062 61.8125 C 28.664062 61.679688 28.75 61.503906 28.769531 61.304688 L 29.589844 52.535156 C 29.59375 52.519531 29.585938 52.511719 29.585938 52.496094 L 30.855469 38.972656 C 30.898438 38.5 30.550781 38.078125 30.074219 38.035156 C 29.601562 37.988281 29.183594 38.335938 29.136719 38.8125 Z M 25.542969 35.441406 L 24.722656 44.207031 C 24.675781 44.679688 25.027344 45.101562 25.5 45.148438 C 25.773438 45.171875 26.035156 45.066406 26.210938 44.878906 C 26.335938 44.742188 26.421875 44.566406 26.4375 44.367188 L 27.261719 35.601562 C 27.304688 35.125 26.957031 34.703125 26.480469 34.660156 C 26.007812 34.617188 25.589844 34.960938 25.542969 35.441406 Z M 21.949219 32.066406 L 21.128906 40.832031 C 21.082031 41.308594 21.429688 41.726562 21.90625 41.773438 C 22.179688 41.800781 22.4375 41.691406 22.617188 41.503906 C 22.742188 41.371094 22.828125 41.195312 22.84375 40.996094 L 23.667969 32.226562 C 23.710938 31.753906 23.363281 31.332031 22.890625 31.285156 C 22.414062 31.242188 21.996094 31.589844 21.949219 32.066406 Z M 31.464844 55.75 L 30.644531 64.519531 C 30.601562 64.988281 30.949219 65.410156 31.421875 65.457031 C 31.699219 65.480469 31.953125 65.375 32.132812 65.1875 C 32.257812 65.050781 32.34375 64.875 32.363281 64.675781 L 33.183594 55.910156 C 33.226562 55.4375 32.878906 55.015625 32.40625 54.96875 C 31.933594 54.925781 31.511719 55.273438 31.464844 55.75 Z M 21.625 44.847656 C 21.152344 44.804688 20.730469 45.152344 20.683594 45.625 L 19.863281 54.394531 C 19.820312 54.867188 20.167969 55.289062 20.640625 55.335938 C 20.917969 55.359375 21.175781 55.253906 21.351562 55.066406 C 21.476562 54.929688 21.5625 54.753906 21.582031 54.554688 L 22.402344 45.789062 C 22.445312 45.3125 22.097656 44.894531 21.625 44.847656 Z M 18.804688 42.378906 L 20.074219 28.851562 C 20.117188 28.378906 19.769531 27.957031 19.296875 27.914062 C 18.820312 27.867188 18.402344 28.214844 18.355469 28.691406 L 17.085938 42.246094 C 17.085938 42.257812 17.089844 42.269531 17.089844 42.285156 L 15.519531 59.023438 C 15.476562 59.496094 15.824219 59.917969 16.296875 59.960938 C 16.574219 59.988281 16.832031 59.878906 17.007812 59.691406 C 17.136719 59.558594 17.21875 59.382812 17.238281 59.183594 L 18.808594 42.414062 C 18.8125 42.402344 18.804688 42.390625 18.804688 42.378906 Z M 13.660156 56.546875 C 13.785156 56.414062 13.867188 56.238281 13.886719 56.039062 L 15.460938 39.269531 C 15.503906 38.796875 15.15625 38.375 14.683594 38.328125 C 14.207031 38.285156 13.789062 38.632812 13.742188 39.109375 L 12.167969 55.878906 C 12.125 56.351562 12.472656 56.773438 12.949219 56.816406 C 13.226562 56.84375 13.480469 56.738281 13.660156 56.546875 Z M 24.277344 49 L 23.457031 57.769531 C 23.414062 58.242188 23.761719 58.664062 24.234375 58.707031 C 24.511719 58.734375 24.769531 58.628906 24.945312 58.4375 C 25.070312 58.304688 25.15625 58.128906 25.175781 57.929688 L 25.996094 49.160156 C 26.039062 48.6875 25.691406 48.265625 25.21875 48.222656 C 24.742188 48.175781 24.324219 48.523438 24.277344 49 Z M 24.277344 49 " fill-opacity="1" fill-rule="nonzero"/></g></g></g></svg>